<svg id="Layer_1" data-name="Layer 1" xmlns="http://www.w3.org/2000/svg" width="65" height="65" viewBox="0 0 65 65">
  <defs>
    <style>
      .sv1 {
        fill: #f07f18;
      }

      .sv2 {
        fill: #ef701b;
      }

      .sv3 {
        opacity: 0.61;
      }

      .sv4 {
        fill: #ed5d1d;
      }

      .sv5 {
        opacity: 0.33;
      }

      .sv6 {
        fill: #ef9d1b;
      }

      .sv7, .sv9 {
        opacity: 0.44;
      }

      .sv8, .sv9 {
        fill: #ea4f1f;
      }

      .sv9 {
        isolation: isolate;
      }

      .sv10 {
        fill: #fff;
        opacity: 0.01;
      }
    </style>
  </defs>
  <title>logo-asli</title>
  <g>
    <path class="sv1" d="M42.14,37.52c-9.19,1.37-17.49-3-17.55-12.09-.06-8.87,7.76-13,17.55-12.09h2.45A3.73,3.73,0,0,0,48.3,9.61h0v-.3a3.73,3.73,0,0,0-3.71-3.73H36.25a19.79,19.79,0,0,0,0,39.58h8.34a3.73,3.73,0,0,0,3.71-3.73h0v-.18a3.73,3.73,0,0,0-3.71-3.73H42.14Z" transform="translate(0)"/>
    <path class="sv1" d="M64.46,41.34a19.87,19.87,0,0,0-19.83-19.8H36.28a3.72,3.72,0,0,0-3.7,3.73v.3a3.72,3.72,0,0,0,3.7,3.73h2.45c9.79-.89,17.62,3.23,17.56,12.1,0,6.32-4.1,10.37-9.67,11.78l-24.33.55C14.56,53.67,8.23,49.31,8.18,41.4L7.91,8.7A3.69,3.69,0,0,0,4.24,5,3.69,3.69,0,0,0,.57,8.7S0,41.32,0,41.34A19.88,19.88,0,0,0,19.84,61.13H44.63A20.15,20.15,0,0,0,46.69,61h0A19.87,19.87,0,0,0,64.46,41.34Z" transform="translate(0)"/>
    <path class="sv2" d="M3.88,39.4h0A30.53,30.53,0,0,1,8,24C8,16.2,7.91,8.7,7.91,8.7A3.69,3.69,0,0,0,4.24,5,3.69,3.69,0,0,0,.57,8.7S0,41.32,0,41.34A19.85,19.85,0,0,0,11,59.05,30.56,30.56,0,0,1,3.88,39.4Z" transform="translate(0)"/>
    <path class="sv2" d="M34,9.18H48.29a3.72,3.72,0,0,0-3.7-3.6H36.25a19.78,19.78,0,0,0-14.31,6.13A29.65,29.65,0,0,1,34,9.18Z" transform="translate(0)"/>
    <g class="sv3">
      <path class="sv4" d="M44.59,37.52H42.14c-9.19,1.37-17.49-3-17.55-12.09a12.7,12.7,0,0,1,.41-3.3c-2.91.21-5.73.49-8.42.85a19.33,19.33,0,0,0-.15,2.4A19.87,19.87,0,0,0,36.25,45.13h8.34a3.73,3.73,0,0,0,3.71-3.7v-.18a3.73,3.73,0,0,0-3.71-3.73Z" transform="translate(0)"/>
      <g>
        <path class="sv4" d="M35.73,21.59a3.72,3.72,0,0,0-3.15,3.68v.3a3.72,3.72,0,0,0,3.7,3.73h2.45c9.79-.89,17.62,3.23,17.56,12.1a11.46,11.46,0,0,1-5.92,10.29c4.19-.3,8.18-.75,11.9-1.33a19.58,19.58,0,0,0,2.19-9A19.88,19.88,0,0,0,47.68,21.78c-2.81-.15-5.7-.22-8.65-.22Q37.37,21.56,35.73,21.59Z" transform="translate(0)"/>
        <path class="sv4" d="M8.18,41.4S8.11,33,8,24.77A72.43,72.43,0,0,0,.25,27.06L0,41.34a19.43,19.43,0,0,0,.77,5.41,78.79,78.79,0,0,0,10.57,2.82A11.53,11.53,0,0,1,8.18,41.4Z" transform="translate(0)"/>
      </g>
    </g>
    <g class="sv5">
      <path class="sv6" d="M28.66,6.8a99.93,99.93,0,0,0-2,11.4c3-4,8.75-5.76,15.46-5.15h2.45a3.73,3.73,0,0,0,3.71-3.73h0V9a3.73,3.73,0,0,0-3.71-3.73H36.23A19.67,19.67,0,0,0,28.66,6.8Z" transform="translate(0)"/>
      <path class="sv6" d="M44.57,44.88a3.73,3.73,0,0,0,3.71-3.73V41a3.73,3.73,0,0,0-3.7-3.74H42.12C35,38.3,28.38,35.88,25.76,30.51q-.06,2.11-.06,4.29c0,2.43.06,4.82.17,7.14a19.73,19.73,0,0,0,10.36,2.94Z" transform="translate(0)"/>
    </g>
    <g class="sv5">
      <path class="sv6" d="M46.6,52.89l-19.83.45c.34,2.64.75,5.15,1.23,7.5H44.61a20.15,20.15,0,0,0,2.06-.11h0a19.1,19.1,0,0,0,4.83-1.14c.59-3.14,1.07-6.54,1.41-10.13A13.63,13.63,0,0,1,46.6,52.89Z" transform="translate(0)"/>
      <path class="sv6" d="M36.26,29h2.45c6.27-.58,11.73.91,14.83,4.38,0-3.55-.24-7-.53-10.27a19.7,19.7,0,0,0-8.4-1.88H36.26A3.73,3.73,0,0,0,32.56,25v.3A3.72,3.72,0,0,0,36.26,29Z" transform="translate(0)"/>
    </g>
    <g class="sv7">
      <path class="sv8" d="M56.26,41.06a11.41,11.41,0,0,1-4.87,9.63c3.38.55,6.6,1,9.62,1.4A19.68,19.68,0,0,0,64.44,41v-.07c-2.63-.8-5.44-1.62-8.44-2.42A12.83,12.83,0,0,1,56.26,41.06Z" transform="translate(0)"/>
      <path class="sv8" d="M0,38.28c2.48.86,5.2,1.73,8.13,2.6,0-1-.05-6-.1-11.91-2.8-.34-5.43-.59-7.83-.77C.13,32.2.07,35.9,0,38.28Z" transform="translate(0)"/>
    </g>
    <path class="sv9" d="M44.57,37.18H42.12c-6.5,1-12.55-.94-15.56-5.35-3.28-.59-6.44-1.12-9.46-1.57A19.9,19.9,0,0,0,36.22,44.83h8.35a3.72,3.72,0,0,0,3.7-3.7V41a3.73,3.73,0,0,0-3.66-3.78Z" transform="translate(0)"/>
  </g>
  <rect class="sv10" width="1" height="1"/>
  <rect class="sv10" x="64" width="1" height="1"/>
  <rect class="sv10" x="64" y="64" width="1" height="1"/>
  <rect class="sv10" y="64" width="1" height="1"/>
</svg>
